<svg width="16" height="16" viewBox="0 0 16 16" fill="none" xmlns="http://www.w3.org/2000/svg">
<g clip-path="url(#clip0_4_513)">
<path d="M13.1599 4.93803C12.9337 4.93803 12.7184 4.98522 12.5228 5.07001C12.2851 4.46923 11.7019 4.04332 11.0215 4.04332C10.7687 4.04332 10.5293 4.10215 10.3161 4.20677C10.0462 3.68652 9.50539 3.33027 8.88317 3.33027C8.70027 3.33027 8.52465 3.36146 8.36056 3.41819V1.62699C8.36061 0.729913 7.63576 0 6.74472 0C5.85378 0 5.12899 0.729913 5.12899 1.62699V8.07241L3.96524 6.74102C3.95711 6.73191 3.94881 6.72297 3.94019 6.71441C3.63463 6.40863 3.22795 6.23909 2.79509 6.23699C2.79229 6.23699 2.78965 6.23699 2.78685 6.23699C2.35501 6.23699 1.9507 6.40373 1.64767 6.70697C1.11336 7.24144 1.08379 8.03476 1.56675 8.88384C2.19194 9.98229 2.87153 11.018 3.47118 11.932C3.90938 12.5999 4.32333 13.2307 4.62593 13.7523C4.88834 14.2049 5.58491 15.6729 5.59202 15.6877C5.68241 15.8785 5.87468 16.0001 6.08565 16.0001H12.9958C13.2332 16.0001 13.4434 15.8469 13.5162 15.6211C13.645 15.2203 14.7756 11.667 14.7756 10.2947V6.56518C14.7755 5.66789 14.0508 4.93803 13.1599 4.93803ZM12.6373 6.56513C12.6373 6.27055 12.8717 6.03093 13.1599 6.03093C13.4481 6.03093 13.6826 6.27055 13.6826 6.56513V10.2946C13.6826 11.2066 12.9817 13.6583 12.595 14.9071H6.43027C6.20368 14.4356 5.77901 13.5622 5.57133 13.204C5.25365 12.6562 4.83167 12.0132 4.38496 11.3323C3.7942 10.4321 3.12473 9.41162 2.51662 8.34334C2.35792 8.06423 2.21246 7.68793 2.42073 7.47966C2.51786 7.38231 2.64866 7.33146 2.78981 7.32995C2.92756 7.33065 3.05712 7.38258 3.15641 7.47654L5.2641 9.88758C5.41386 10.0591 5.65456 10.1196 5.86757 10.0396C6.0808 9.9595 6.222 9.7556 6.222 9.52793V1.62699C6.222 1.33247 6.4565 1.09296 6.74477 1.09296C7.03309 1.09296 7.26765 1.33247 7.26765 1.62699V6.72927C7.26765 7.03107 7.51239 7.27575 7.81413 7.27575C8.11587 7.27575 8.36061 7.03107 8.36061 6.72927V4.9571C8.36061 4.66274 8.59506 4.42328 8.88322 4.42328C9.17149 4.42328 9.40594 4.66274 9.40594 4.9571V7.44206C9.40594 7.74401 9.65063 7.98859 9.95237 7.98859C10.2542 7.98859 10.4989 7.74406 10.4989 7.44206V5.67031C10.4989 5.37579 10.7334 5.13622 11.0215 5.13622C11.3098 5.13622 11.5444 5.37579 11.5444 5.67031V8.15543C11.5444 8.45717 11.7891 8.70196 12.0909 8.70196C12.3927 8.70196 12.6374 8.45717 12.6374 8.15543V6.56513H12.6373Z" fill="black"/>
</g>
<defs>
<clipPath id="clip0_4_513">
<rect width="16" height="16" fill="white"/>
</clipPath>
</defs>
</svg>
