<svg width="643" height="495" viewBox="0 0 643 495" fill="none" xmlns="http://www.w3.org/2000/svg">
<path fill-rule="evenodd" clip-rule="evenodd" d="M351.211 466.113C220.17 453.576 111.707 363.237 64.1816 248.085C16.6562 132.932 195.59 34.8397 324.468 29.2198C453.346 23.5999 552.834 131.341 552.834 254.06C552.834 376.779 482.252 478.65 351.211 466.113Z" fill="#FFE5D2"/>
<path fill-rule="evenodd" clip-rule="evenodd" d="M512.436 343.811C512.543 343.752 513.211 344.583 514.199 346.217C515.191 347.846 516.425 350.32 517.572 353.512C519.924 359.875 521.4 369.268 520.525 379.512C519.657 389.755 517.141 398.746 515.2 405.145C513.213 411.548 511.752 415.434 511.5 415.369C511.222 415.296 512.208 411.275 513.838 404.81C515.426 398.346 517.691 389.403 518.54 379.37C519.393 369.341 518.179 360.212 516.228 353.901C514.333 347.558 512.123 343.964 512.436 343.811Z" fill="white"/>
<path fill-rule="evenodd" clip-rule="evenodd" d="M519.143 292.55C519.267 292.498 520.076 293.89 521.424 296.456C522.772 299.023 524.665 302.763 526.905 307.431C531.348 316.765 537.328 329.832 541.665 345.002C543.797 352.59 545.25 359.967 545.986 366.742C546.728 373.515 546.803 379.67 546.432 384.806C546.073 389.945 545.383 394.068 544.72 396.872C544.064 399.681 543.544 401.195 543.426 401.17C543.058 401.103 544.682 394.919 545.027 384.745C545.456 374.591 544.039 360.484 539.741 345.484C535.453 330.479 529.718 317.406 525.612 307.955C523.545 303.227 521.873 299.399 520.716 296.753C519.586 294.097 519.017 292.603 519.143 292.55Z" fill="white"/>
<path fill-rule="evenodd" clip-rule="evenodd" d="M270.924 352.715C271.154 352.948 268.897 354.974 265.968 358.735C265.241 359.679 264.451 360.713 263.713 361.893C262.904 363.03 262.202 364.334 261.419 365.681C259.965 368.426 258.584 371.547 257.52 374.943C256.501 378.353 255.907 381.685 255.587 384.739C255.49 386.269 255.348 387.727 255.389 389.092C255.348 390.462 255.432 391.734 255.513 392.898C255.868 397.548 256.636 400.393 256.309 400.476C256.11 400.54 254.847 397.792 254.114 393.033C253.939 391.845 253.771 390.539 253.739 389.125C253.626 387.713 253.707 386.203 253.757 384.612C253.986 381.441 254.548 377.964 255.607 374.425C256.711 370.898 258.199 367.673 259.8 364.873C260.655 363.499 261.438 362.179 262.333 361.041C263.158 359.859 264.04 358.837 264.86 357.918C268.17 354.256 270.794 352.563 270.924 352.715Z" fill="white"/>
<path fill-rule="evenodd" clip-rule="evenodd" d="M276.221 369.127C276.388 369.378 275.131 370.283 273.488 372.014C272.656 372.869 271.78 373.977 270.918 375.261C270.092 376.567 269.301 378.065 268.68 379.717C268.086 381.377 267.728 383.016 267.524 384.525C267.36 386.035 267.324 387.414 267.419 388.572C267.579 390.886 267.977 392.33 267.68 392.431C267.467 392.515 266.572 391.194 266.024 388.748C265.739 387.528 265.622 386.034 265.696 384.379C265.811 382.729 266.147 380.921 266.798 379.106C267.474 377.3 268.396 375.682 269.385 374.315C270.409 372.968 271.481 371.861 272.504 371.067C274.538 369.456 276.108 368.935 276.221 369.127Z" fill="white"/>
<path fill-rule="evenodd" clip-rule="evenodd" d="M202.683 216.181C202.785 216.097 203.676 216.921 205.205 218.494C205.981 219.273 206.898 220.253 207.869 221.462C208.849 222.66 210.029 223.99 211.135 225.589C211.706 226.378 212.306 227.205 212.929 228.066C213.546 228.933 214.105 229.882 214.728 230.84C216.003 232.743 217.146 234.891 218.389 237.132C220.736 241.678 222.98 246.837 224.767 252.43C226.497 258.039 227.595 263.519 228.251 268.534C228.502 271.052 228.783 273.44 228.812 275.687C228.842 276.811 228.921 277.893 228.903 278.937C228.878 279.978 228.852 280.978 228.829 281.932C228.823 283.843 228.602 285.56 228.471 287.069C228.354 288.58 228.151 289.871 227.948 290.92C227.575 293.023 227.304 294.171 227.168 294.153C226.817 294.11 227.478 289.449 227.423 281.918C227.404 280.976 227.386 279.992 227.368 278.964C227.344 277.938 227.228 276.872 227.163 275.769C227.065 273.56 226.726 271.216 226.432 268.748C225.686 263.831 224.556 258.467 222.858 252.962C221.102 247.473 218.954 242.391 216.739 237.882C215.561 235.66 214.491 233.52 213.298 231.614C212.714 230.655 212.196 229.702 211.624 228.828C211.046 227.957 210.492 227.12 209.963 226.321C205.66 219.971 202.412 216.398 202.683 216.181Z" fill="white"/>
<path fill-rule="evenodd" clip-rule="evenodd" d="M225.221 224.955C225.39 224.814 227.676 226.826 230.584 230.704C232.047 232.634 233.588 235.067 235.089 237.872C236.546 240.696 237.937 243.904 239.047 247.38C240.123 250.865 240.807 254.27 241.215 257.386C241.575 260.509 241.686 263.339 241.572 265.708C241.37 270.449 240.613 273.307 240.39 273.275C240.069 273.238 240.326 270.344 240.164 265.707C240.098 263.389 239.845 260.637 239.397 257.611C238.9 254.591 238.182 251.297 237.139 247.911C236.06 244.535 234.76 241.403 233.433 238.614C232.061 235.842 230.685 233.404 229.402 231.423C226.859 227.448 224.975 225.15 225.221 224.955Z" fill="white"/>
<path fill-rule="evenodd" clip-rule="evenodd" d="M146.3 378.205L144.567 374.877L96.333 409.554L117.376 441.631L165.39 403.539L146.3 378.205Z" fill="#FF7B5B"/>
<path fill-rule="evenodd" clip-rule="evenodd" d="M98.3543 410.296L116.84 440.377L118.023 439.881L101.56 411.754L98.3543 410.296Z" fill="#D7D4D4"/>
<path fill-rule="evenodd" clip-rule="evenodd" d="M145.347 377.547L98.3543 410.295C98.3543 410.295 98.5513 410.999 99.7174 411.432C100.885 411.865 101.56 411.755 101.56 411.755L150.965 379.939C150.965 379.939 148.117 379.316 147.084 378.591C146.05 377.863 145.347 377.547 145.347 377.547Z" fill="#F5F3F3"/>
<path fill-rule="evenodd" clip-rule="evenodd" d="M152.173 378.655L100.678 411.02L117.402 440.844L120.097 444.975L171.594 409.113C171.594 409.113 166.17 401.496 162.913 396.897C159.657 392.297 153.264 381.451 152.916 380.756C152.567 380.061 152.173 378.655 152.173 378.655Z" fill="#FF7B5B"/>
<path fill-rule="evenodd" clip-rule="evenodd" d="M576.839 155.219L578.293 152.423L618.798 181.543L601.127 208.479L560.808 176.491L576.839 155.219Z" fill="#775298"/>
<path fill-rule="evenodd" clip-rule="evenodd" d="M617.1 182.165L601.578 207.425L600.584 207.009L614.409 183.391L617.1 182.165Z" fill="#D7D4D4"/>
<path fill-rule="evenodd" clip-rule="evenodd" d="M577.64 154.664L617.101 182.165C617.101 182.165 616.934 182.755 615.956 183.119C614.976 183.483 614.408 183.39 614.408 183.39L572.921 156.673C572.921 156.673 575.313 156.151 576.181 155.541C577.049 154.93 577.64 154.664 577.64 154.664Z" fill="#F5F3F3"/>
<path fill-rule="evenodd" clip-rule="evenodd" d="M571.907 155.597L615.149 182.773L601.106 207.819L598.843 211.286L555.598 181.171C555.598 181.171 560.154 174.774 562.888 170.913C565.624 167.051 570.992 157.943 571.283 157.359C571.576 156.777 571.907 155.597 571.907 155.597Z" fill="#775298"/>
<path fill-rule="evenodd" clip-rule="evenodd" d="M88.7139 102.807C88.7139 102.807 85.6558 104.798 87.1842 108.119C88.7139 111.44 95.4183 121.289 104.475 120.957C104.846 120.944 93.0657 102.807 93.0657 102.807H88.7139Z" fill="#FF7B5B"/>
<path fill-rule="evenodd" clip-rule="evenodd" d="M74.859 284.391C74.859 284.391 63.5335 274.871 59.9075 276.576C55.4775 278.66 30.1218 302.036 31.1127 313.049C31.5198 317.559 37.1 313.695 47.0435 303.99C56.9899 294.286 69.5135 298.444 69.5135 298.444L74.859 284.391Z" fill="#775298"/>
<path fill-rule="evenodd" clip-rule="evenodd" d="M102.376 300.446L88.7032 292.728C88.7032 292.728 53.2634 323.991 58.8002 328.159C62.9998 331.32 65.4683 328.485 75.4133 318.78C85.3568 309.077 97.9557 314.656 97.9557 314.656L102.376 300.446Z" fill="#775298"/>
<path fill-rule="evenodd" clip-rule="evenodd" d="M185.894 197.593L188.458 231.85L131.544 217.899L185.894 197.593Z" fill="#F3A683"/>
<path fill-rule="evenodd" clip-rule="evenodd" d="M131.544 219.078C131.544 219.078 181.328 222.03 187.957 219.949C187.957 219.949 197.686 309.882 180.375 319.585C163.062 329.29 124.212 315.08 124.212 315.08L134.702 295.672L157.318 294.286V259.629L155.696 259.975L131.544 219.078Z" fill="#112129"/>
<path fill-rule="evenodd" clip-rule="evenodd" d="M69.1381 280.423C69.1381 280.423 56.6159 285.275 60.6678 297.059C60.6678 297.059 103.413 328.598 124.213 321.319C135.866 317.242 148.384 286.133 157.141 259.555L187.958 219.949C187.958 219.949 173.423 220.633 168.575 220.615C159.308 220.582 131.544 219.078 131.544 219.078C131.544 219.078 117.042 290.474 111.875 292.207C106.707 293.938 69.1381 280.423 69.1381 280.423Z" fill="#22343D"/>
<path fill-rule="evenodd" clip-rule="evenodd" d="M143.145 129.531C143.145 129.531 172.981 103.19 178.137 96.2572C183.293 89.3258 194.346 66.1053 207.971 56.4014L201.342 43.2311C201.342 43.2311 205.395 41.1523 207.971 46.6961C207.971 46.6961 217.546 28.6758 219.757 29.0207C221.969 29.3669 215.339 42.8849 215.339 42.8849C215.339 42.8849 224.549 30.407 227.126 30.7546C229.702 31.1008 220.496 44.7809 220.496 44.7809C220.496 44.7809 230.807 33.5271 232.282 34.9134C233.755 36.2997 224.178 44.7809 224.178 44.7809C224.178 44.7809 234.491 39.2099 235.596 41.046C236.702 42.8849 225.284 47.7361 225.284 47.7361C225.284 47.7361 224.178 55.7076 217.181 59.1726C217.181 59.1726 203.325 94.398 190.801 105.834L150.571 145.176L143.145 129.531Z" fill="#FFC6B2"/>
<path fill-rule="evenodd" clip-rule="evenodd" d="M107.529 143.182C107.529 143.182 79.2589 171.009 71.8447 175.795C64.4291 180.579 39.6499 190.763 29.2109 203.494L15.2764 197.133C15.2764 197.133 13.0295 200.925 18.898 203.402C18.898 203.402 -0.344431 212.244 0.00469394 214.328C0.350921 216.411 14.778 210.299 14.778 210.299C14.778 210.299 1.43161 218.848 1.77639 221.276C2.12117 223.704 16.7438 215.168 16.7438 215.168C16.7438 215.168 4.68818 224.765 6.14842 226.164C7.60576 227.564 16.7105 218.634 16.7105 218.634C16.7105 218.634 10.6928 228.285 12.6369 229.341C14.5781 230.398 19.8411 219.7 19.8411 219.7C19.8411 219.7 28.3215 218.738 32.072 212.184C32.072 212.184 67.5306 198.909 79.8036 187.232L123.929 157.812L107.529 143.182Z" fill="#FFC6B2"/>
<path fill-rule="evenodd" clip-rule="evenodd" d="M118.128 132.092L103.829 145.262L107.455 160.109C107.455 160.109 121.542 191.931 123.672 199.694C126.982 211.765 121.628 230.171 121.628 230.171C121.628 230.171 145.509 228.305 167.238 227.613C188.967 226.919 196.075 220.332 196.075 220.332C196.075 220.332 177.235 161.291 164.228 144.786C151.219 128.285 146.488 123.118 146.488 123.118L127.335 127.058L118.128 132.092Z" fill="white"/>
<path fill-rule="evenodd" clip-rule="evenodd" d="M160.09 142.84L174.988 133.883C174.988 133.883 177.264 124.287 159.298 112.968L138.23 125.39L160.09 142.84Z" fill="white"/>
<path fill-rule="evenodd" clip-rule="evenodd" d="M106.842 144.221C98.675 145.299 83.7496 164.776 82.0851 164.739C82.0851 164.739 92.5892 180.869 100.91 181.393C100.91 181.393 137.528 140.171 106.842 144.221Z" fill="white"/>
<path fill-rule="evenodd" clip-rule="evenodd" d="M135.673 131.547C135.673 131.547 123.802 123.201 124.213 119.874C124.317 119.035 125.963 117.675 126.39 116.467C128.692 109.969 117.594 93.2264 110.775 89.6973C105.411 86.922 107.762 86.6766 96.4729 92.9892C85.1836 99.3017 91.6156 110.217 96.6569 115.863C101.423 121.2 106.881 123.486 111.792 123.872L118.775 138.465L135.673 131.547Z" fill="#FFC6B2"/>
<path fill-rule="evenodd" clip-rule="evenodd" d="M114.252 143.133C112.007 137.951 116.258 131.423 123.749 128.548C131.243 125.672 139.134 127.542 141.384 132.722C143.628 137.903 136.089 145.692 131.881 147.307C127.672 148.922 116.496 148.313 114.252 143.133Z" fill="#FFC6B2"/>
<path fill-rule="evenodd" clip-rule="evenodd" d="M96.6575 115.864C96.6575 115.864 92.8069 115.663 92.3796 118.077C91.9508 120.493 99.4374 120.493 102.219 118.681L96.6575 115.864Z" fill="#FFC6B2"/>
<path fill-rule="evenodd" clip-rule="evenodd" d="M98.5828 118.077C97.8513 113.714 92.9099 110.47 93.1562 106.218C95.5247 106.236 97.0458 103.476 95.968 101.116C95.5436 100.189 94.825 99.396 94.3658 98.4814C93.908 97.5681 93.7864 96.3713 94.489 95.8547C94.8221 95.6107 95.2727 95.5684 95.7044 95.5276C99.2159 95.1881 105.232 96.1791 108.464 95.0518C111.541 93.9791 114.838 91.8922 114.518 88.3454C114.238 85.2566 111.34 82.7525 108.677 80.8605C107.152 79.7755 102.793 76.9389 101.148 77.1965C98.6379 77.5891 98.0295 80.7406 97.8484 83.3782C96.0926 81.8052 93.5024 82.0573 91.9755 83.3373C90.4487 84.6173 89.7258 86.651 89.0609 88.6139C88.3945 90.5781 87.689 92.6173 86.1824 93.9218C84.7787 95.1377 82.5579 96.0578 82.8491 98.1256C83.1953 100.59 86.617 101.467 88.1989 103.569C87.8092 103.053 87.4789 106.344 87.7035 106.901C88.3785 108.582 90.0633 109.694 91.2816 110.98C93.8762 113.72 95.1452 116.478 98.5828 118.077Z" fill="#FF7B5B"/>
<path fill-rule="evenodd" clip-rule="evenodd" d="M120.093 108.1L111.32 112.37C111.32 112.37 121.858 119.567 120.093 108.1Z" fill="white"/>
<path fill-rule="evenodd" clip-rule="evenodd" d="M108.024 109.793C108.503 110.649 107.793 111.887 106.439 112.557C105.084 113.228 103.598 113.078 103.119 112.222C102.641 111.366 103.349 110.13 104.703 109.458C106.059 108.787 107.544 108.937 108.024 109.793Z" fill="#FFB2A0"/>
<path fill-rule="evenodd" clip-rule="evenodd" d="M120.834 101.559C121.313 102.415 120.604 103.653 119.249 104.323C117.895 104.994 116.408 104.844 115.929 103.988C115.451 103.132 116.159 101.894 117.514 101.224C118.869 100.553 120.354 100.703 120.834 101.559Z" fill="#FFB2A0"/>
<path fill-rule="evenodd" clip-rule="evenodd" d="M113.969 107.798C113.929 107.75 114.092 107.547 114.472 107.289C114.834 107.026 115.464 106.743 115.932 106.268C116.396 105.809 116.562 104.851 115.852 104.716C115.115 104.48 114.278 105.276 113.317 106.032C113.08 106.218 112.845 106.402 112.612 106.583C112.394 106.771 111.937 107.046 111.462 106.991C110.556 106.853 110.171 106.285 109.823 105.904C109.128 105.065 108.699 104.185 108.461 103.425C107.991 101.887 108.202 100.895 108.315 100.903C108.473 100.896 108.525 101.85 109.123 103.203C109.425 103.875 109.875 104.638 110.531 105.359C110.852 105.724 111.254 106.065 111.541 106.076C111.661 106.081 111.756 106.043 111.982 105.865C112.212 105.683 112.444 105.499 112.678 105.314C113.162 104.946 113.581 104.574 114.134 104.228C114.672 103.887 115.438 103.671 116.125 103.891C116.858 104.072 117.288 104.876 117.16 105.435C117.078 106.005 116.777 106.425 116.435 106.732C115.712 107.3 115.066 107.438 114.659 107.609C114.241 107.758 114.013 107.851 113.969 107.798Z" fill="#FF7B5B"/>
<path fill-rule="evenodd" clip-rule="evenodd" d="M111.793 123.872C111.793 123.872 117.389 123.902 120.425 122.142C120.425 122.142 117.857 125.111 112.717 125.88L111.793 123.872Z" fill="#FFA192"/>
<path fill-rule="evenodd" clip-rule="evenodd" d="M114.219 100.258C114.169 100.518 113.386 100.599 112.559 100.942C111.721 101.261 111.115 101.734 110.882 101.587C110.643 101.468 111.038 100.528 112.171 100.079C113.302 99.628 114.293 100.012 114.219 100.258Z" fill="#22343D"/>
<path fill-rule="evenodd" clip-rule="evenodd" d="M103.253 107.027C103.041 106.88 103.373 106.032 104.178 105.182C104.994 104.316 106.036 104.027 106.146 104.269C106.262 104.505 105.627 105.054 104.913 105.816C104.187 106.576 103.482 107.188 103.253 107.027Z" fill="#22343D"/>
<path fill-rule="evenodd" clip-rule="evenodd" d="M99.0015 105.718C98.5481 105.402 98.1946 104.048 99.9301 102.225C101.682 100.36 103.639 100.688 103.873 101.206C104.125 101.715 103.473 102.439 101.936 104.078C100.376 105.713 99.4926 106.064 99.0015 105.718Z" fill="#FF7B5B"/>
<path fill-rule="evenodd" clip-rule="evenodd" d="M108.214 98.534C107.963 98.0924 108.24 96.807 110.497 95.9114C112.786 94.9859 114.311 96.0068 114.29 96.5371C114.285 97.0646 113.423 97.434 111.413 98.2492C109.387 99.0493 108.485 99.0152 108.214 98.534Z" fill="#FF7B5B"/>
<path fill-rule="evenodd" clip-rule="evenodd" d="M589.618 111.32C589.766 111.458 587.335 114.032 582.291 116.834C577.309 119.634 569.47 122.409 560.454 122.472C551.437 122.535 543.555 119.868 538.53 117.138C533.444 114.406 530.972 111.866 531.117 111.725C531.327 111.476 534.091 113.619 539.185 115.964C544.229 118.32 551.831 120.658 560.438 120.599C569.047 120.538 576.61 118.095 581.618 115.67C586.673 113.253 589.405 111.072 589.618 111.32Z" fill="#775298"/>
<path fill-rule="evenodd" clip-rule="evenodd" d="M534.612 107.433C534.474 107.718 531.782 106.667 527.248 105.715C524.988 105.214 522.246 104.827 519.192 104.469C516.127 104.15 512.738 103.897 509.16 103.657C505.581 103.421 502.155 103.15 499.043 102.787C495.931 102.399 493.135 101.937 490.832 101.351C486.208 100.215 483.589 98.8711 483.68 98.6817C483.8 98.3954 486.554 99.2801 491.133 100.056C493.418 100.466 496.175 100.784 499.244 101.071C502.321 101.336 505.72 101.552 509.304 101.79C512.891 102.029 516.322 102.339 519.431 102.759C522.539 103.218 525.326 103.752 527.606 104.434C532.185 105.749 534.714 107.254 534.612 107.433Z" fill="#775298"/>
<mask id="mask0_2_760" style="mask-type:luminance" maskUnits="userSpaceOnUse" x="461" y="35" width="182" height="84">
<path fill-rule="evenodd" clip-rule="evenodd" d="M461.901 35.2175H642.514V118.481H461.901V35.2175Z" fill="white"/>
</mask>
<g mask="url(#mask0_2_760)">
<path fill-rule="evenodd" clip-rule="evenodd" d="M480.068 52.0825C488.664 50.3664 497.57 51.844 506.238 53.203C514.906 54.562 523.906 55.7874 532.38 53.5983C547.681 49.6466 559.296 35.101 575.163 35.2182C581.697 35.2659 587.855 37.8912 594.22 39.2802C602.124 41.0059 610.358 40.8205 618.365 42.0514C626.373 43.2823 634.645 46.3125 639.17 52.6496C644.539 60.1698 643.067 70.7775 637.433 78.1246C631.8 85.4731 622.777 89.9469 613.533 92.4822C607.086 94.2502 600.216 95.2725 594.636 98.7907C588.992 102.35 585.307 108.078 580.048 112.125C566.852 122.278 546.316 119.368 532.686 109.736C529.261 107.317 526.087 104.509 522.24 102.738C506.59 95.5301 484.082 105.072 470.604 91.9574C456.917 78.6385 458.867 56.3136 480.068 52.0825Z" fill="#775298"/>
</g>
<path fill-rule="evenodd" clip-rule="evenodd" d="M475.773 310.022C475.773 310.022 490.112 338.941 491.789 333.586C493.462 328.229 492.909 315.368 492.011 313.532C491.108 311.696 485.247 303.584 485.247 303.584L475.773 310.022Z" fill="#FFB2A0"/>
<path fill-rule="evenodd" clip-rule="evenodd" d="M579.455 76.1772C580.782 77.7761 579.895 76.0586 581.397 78.365C587.641 78.1605 591.832 73.1892 591.832 73.1892C591.832 73.1892 601.742 73.436 601.628 71.7703C601.515 70.1018 592.128 70.7248 592.128 70.7248C592.128 70.7248 602.058 67.79 601.513 66.3247C600.972 64.8607 589.507 69.5307 589.507 69.5307C589.507 69.5307 601.076 62.7738 599.366 61.6901C597.658 60.6092 586.527 66.5073 586.527 66.5073C586.527 66.5073 596.201 59.0307 594.751 58.067C593.304 57.1032 579.885 66.8345 579.885 66.8345C580.081 62.0472 576.431 62.2149 576.431 62.2149L576.582 73.9035C576.582 73.9035 578.843 75.4411 579.455 76.1772Z" fill="#FFC6B2"/>
<path fill-rule="evenodd" clip-rule="evenodd" d="M432.557 23.2749C430.436 23.643 432.08 22.9491 429.328 23.7397C424.806 19.6831 425.406 13.3079 425.406 13.3079C425.406 13.3079 417.824 7.30206 419.081 6.12843C420.346 4.95207 426.924 11.2823 426.924 11.2823C426.924 11.2823 421.572 2.88288 423.011 2.12772C424.45 1.37256 429.73 12.0266 429.73 12.0266C429.73 12.0266 425.845 -0.253629 427.888 0.00399761C429.927 0.261625 434.091 11.6245 434.091 11.6245C434.091 11.6245 432.132 -0.00827033 433.892 0.175749C435.655 0.358405 438.826 16.0191 438.826 16.0191C442.057 12.3169 444.666 14.7228 444.666 14.7228L436.477 23.1972C436.477 23.1972 433.532 23.1073 432.557 23.2749Z" fill="#FFC6B2"/>
<path fill-rule="evenodd" clip-rule="evenodd" d="M483.994 72.0998C481.252 71.6759 474.622 75.8225 471.304 82.5808C469.447 86.3634 468.169 90.206 470.3 96.3577C471.304 99.2515 473.405 99.6141 473.874 100.91C474.467 102.552 472.504 107.725 472.504 107.725L480.331 110.699C480.839 107.145 481.416 103.57 485.265 102.027C486.705 101.449 488.246 101.084 489.605 100.35C493.272 98.3723 495.23 94.0458 496.737 90.5031C497.861 87.8573 490.87 73.1603 483.994 72.0998Z" fill="#FFC6B2"/>
<path fill-rule="evenodd" clip-rule="evenodd" d="M474.677 172.538L461.564 167.587C461.564 167.587 422.647 235.493 422.81 254.334C422.971 273.173 476.259 310.894 476.259 310.894L485.247 303.585C485.247 303.585 468.794 276.592 459.999 267.074C451.203 257.555 474.677 172.538 474.677 172.538Z" fill="#FFB2A0"/>
<path fill-rule="evenodd" clip-rule="evenodd" d="M539.786 249.893C539.786 249.893 568.688 236.989 562.88 235.85C557.073 234.716 543.49 236.279 541.62 237.272C539.747 238.265 531.631 244.42 531.631 244.42L539.786 249.893Z" fill="#FFC6B2"/>
<path fill-rule="evenodd" clip-rule="evenodd" d="M487.558 171.949L467.665 178.759C467.665 178.759 447.766 261.112 455.363 274.041C462.957 286.976 484.291 278.417 514.675 262.813L540.125 249.741L531.63 244.421C531.63 244.421 502.016 249.881 493.699 255.326C493.699 255.326 498.039 243.754 503.826 227.42C509.612 211.085 513.603 194.41 487.558 171.949Z" fill="#FFC6B2"/>
<path fill-rule="evenodd" clip-rule="evenodd" d="M463.072 115.844C463.072 110.372 464.944 106.415 470.759 106.415C476.574 106.415 484.612 108.333 484.612 113.806C484.612 119.28 480.03 128.166 474.213 128.166C468.398 128.166 463.072 121.318 463.072 115.844Z" fill="#FFC6B2"/>
<path fill-rule="evenodd" clip-rule="evenodd" d="M467.665 105.631C467.665 105.631 449.583 87.2182 445.965 69.1802C442.346 51.145 436.201 21.8777 436.201 21.8777L429.329 23.7398C429.329 23.7398 426.072 63.7373 429.329 69.8618C432.583 75.9876 448.487 116.769 453.33 127.479L467.665 105.631Z" fill="#FFC6B2"/>
<path fill-rule="evenodd" clip-rule="evenodd" d="M487.091 119.982C487.091 119.982 488.482 114.254 511.347 106.469C534.213 98.6857 577.351 73.456 577.351 73.456L581.655 78.0892C581.655 78.0892 558.216 103.564 544.579 108.033C530.943 112.502 501.98 130.12 499.001 131.53C494.494 133.663 494.549 136.347 487.091 119.982Z" fill="#FFC6B2"/>
<path fill-rule="evenodd" clip-rule="evenodd" d="M467.665 105.631C467.665 105.631 449.293 111.233 449.293 137.537C449.293 137.537 449.304 173.563 453.634 180.117C453.634 180.117 460.673 181.814 469.449 180.117C478.651 178.336 487.557 171.949 487.557 171.949L502.009 131.125L500.281 111.998L480.631 108.428C480.631 108.428 486.268 133.213 465.874 122.558C461.911 120.488 471.705 106.426 471.705 106.426L467.665 105.631Z" fill="#22343D"/>
<path fill-rule="evenodd" clip-rule="evenodd" d="M452.12 127.024L443.067 109.278C443.067 109.278 444.365 98.5119 460.984 94.6543C460.984 94.6543 462.665 100.081 464.507 102.154C466.348 104.226 471.711 106.432 471.711 106.432L452.12 127.024Z" fill="#22343D"/>
<path fill-rule="evenodd" clip-rule="evenodd" d="M486.344 134.157L515.13 128.605C515.13 128.605 520.135 118.848 508.268 107.241C508.268 107.241 485.814 108.517 482.908 108.745C480.047 108.968 482.011 111.042 482.011 111.042L486.344 134.157Z" fill="#22343D"/>
<path fill-rule="evenodd" clip-rule="evenodd" d="M453.588 171.342C453.588 171.342 426.361 218.708 421.863 227.172C421.863 227.172 502.189 261.891 534.797 220.1C534.797 220.1 516.248 183.16 487.574 169.097L475.204 165.611L454.072 171.114" fill="#22343D"/>
<path fill-rule="evenodd" clip-rule="evenodd" d="M495.683 90.0552C495.683 90.0552 498.784 87.1368 500.692 89.1569C502.6 91.1771 493.775 94.0955 493.775 94.0955L495.683 90.0552Z" fill="#FFC6B2"/>
<path fill-rule="evenodd" clip-rule="evenodd" d="M552.414 50.2528C552.445 50.3537 551.247 50.8417 548.959 51.3529C546.678 51.8695 543.292 52.3384 539.087 52.4188C534.884 52.4979 529.886 52.1462 524.416 51.4483C518.942 50.7654 512.995 49.7621 506.738 49.1201C500.492 48.4917 494.486 48.3772 489.166 49.1855C483.845 49.9802 479.24 51.62 475.72 53.5352C472.2 55.4653 469.75 57.6068 468.246 59.2275C466.734 60.8496 466.053 61.8856 465.899 61.7983C465.815 61.7574 466.27 60.5906 467.641 58.7722C469.002 56.9593 471.406 54.5671 474.99 52.4038C478.571 50.2542 483.331 48.4072 488.862 47.483C494.4 46.5452 500.595 46.6174 506.95 47.2581C513.311 47.911 519.265 48.9715 524.675 49.7403C530.085 50.5241 534.974 51.0039 539.091 51.0939C547.344 51.3106 552.339 49.9325 552.414 50.2528Z" fill="#775298"/>
<path fill-rule="evenodd" clip-rule="evenodd" d="M479.888 88.3985C479.88 88.513 478.996 88.5934 477.647 88.1722C477.314 88.0618 476.92 87.9173 476.553 87.6011C476.372 87.443 476.204 87.2331 476.102 86.9809C475.954 86.6279 475.965 86.2271 476.112 85.9218C476.155 85.8604 476.152 85.7146 476.238 85.7118L476.5 85.7037C476.668 85.6819 476.866 85.7337 477.061 85.7677C477.417 85.8318 477.531 85.8223 477.785 85.8386C478.23 85.8482 478.69 85.8045 479.151 85.7091C481.034 85.3356 482.294 84.0461 482.859 82.9856C483.452 81.9183 483.504 81.1155 483.662 81.125C483.774 81.1114 483.994 81.9647 483.504 83.2528C483.255 83.8839 482.822 84.6077 482.122 85.2429C481.427 85.8768 480.463 86.3975 479.37 86.6224C478.824 86.7369 478.274 86.7805 477.746 86.7546C477.515 86.7437 477.153 86.7001 477.047 86.6783C476.95 86.6633 476.962 86.6428 476.943 86.6537C476.932 86.6647 476.926 86.6824 476.927 86.7083C476.966 86.831 477.037 86.9482 477.137 87.0531C477.339 87.2671 477.631 87.4266 477.917 87.5602C479.083 88.0986 479.91 88.2581 479.888 88.3985Z" fill="#FF7B5B"/>
<path fill-rule="evenodd" clip-rule="evenodd" d="M473.431 88.714L484.035 92.6452C484.035 92.6452 474.716 98.692 473.431 88.714Z" fill="white"/>
<path fill-rule="evenodd" clip-rule="evenodd" d="M488.563 90.6057C488.187 91.2791 487.019 91.3963 485.954 90.8688C484.889 90.3426 484.332 89.3693 484.707 88.6973C485.084 88.024 486.253 87.9054 487.317 88.4329C488.382 88.9604 488.94 89.9323 488.563 90.6057Z" fill="#FFB2A0"/>
<path fill-rule="evenodd" clip-rule="evenodd" d="M476.728 84.7012C476.407 85.3991 475.252 85.6009 474.148 85.151C473.045 84.7012 472.409 83.7716 472.73 83.0737C473.05 82.3758 474.206 82.174 475.31 82.6238C476.414 83.0737 477.05 84.0033 476.728 84.7012Z" fill="#FFB2A0"/>
<path fill-rule="evenodd" clip-rule="evenodd" d="M472.801 99.6568C472.801 99.6568 476.518 102.586 480.396 101.643C480.396 101.643 479.059 103.529 473.912 102.837C473.912 102.837 474.339 100.758 472.801 99.6568Z" fill="#FFA192"/>
<path fill-rule="evenodd" clip-rule="evenodd" d="M487.546 84.3392C487.546 84.7754 487.169 85.1298 486.706 85.1298C486.242 85.1298 485.866 84.7754 485.866 84.3392C485.866 83.903 486.242 83.5486 486.706 83.5486C487.169 83.5486 487.546 83.903 487.546 84.3392Z" fill="#22343D"/>
<path fill-rule="evenodd" clip-rule="evenodd" d="M480.671 82.009C480.671 82.4452 480.294 82.7996 479.83 82.7996C479.367 82.7996 478.992 82.4452 478.992 82.009C478.992 81.5728 479.367 81.2184 479.83 81.2184C480.294 81.2184 480.671 81.5728 480.671 82.009Z" fill="#22343D"/>
<path fill-rule="evenodd" clip-rule="evenodd" d="M490.245 82.2333C489.986 82.3369 489.485 81.7658 488.726 81.3037C487.982 80.8211 487.229 80.6044 487.231 80.3399C487.206 80.0864 488.258 79.8806 489.279 80.5253C490.302 81.166 490.505 82.157 490.245 82.2333Z" fill="#775298"/>
<path fill-rule="evenodd" clip-rule="evenodd" d="M478.128 78.3975C478.111 78.1508 479.014 77.84 480.222 77.87C481.452 77.8945 482.36 78.4561 482.234 78.6906C482.118 78.9278 481.262 78.8255 480.183 78.8065C479.098 78.7765 478.146 78.6661 478.128 78.3975Z" fill="#775298"/>
<path fill-rule="evenodd" clip-rule="evenodd" d="M481.915 321.773C481.915 321.773 486.326 336.505 490.88 335.299C495.435 334.094 492.01 313.533 492.01 313.533L487.466 306.774C487.466 306.774 491.735 341.191 481.915 321.773Z" fill="#22343D"/>
<path fill-rule="evenodd" clip-rule="evenodd" d="M537.538 240.097C537.538 240.097 540.745 236.803 544.633 236.255C548.523 235.706 562.423 234.151 564.464 235.889C566.507 237.627 553.198 243.454 553.198 243.454C553.198 243.454 557.835 240.673 555.91 239.64C552.507 237.809 537.538 240.097 537.538 240.097Z" fill="#22343D"/>
<path fill-rule="evenodd" clip-rule="evenodd" d="M532.023 244.041L536.374 252.354L538.749 251.114L532.946 242.924L532.023 244.041Z" fill="#22343D"/>
<path fill-rule="evenodd" clip-rule="evenodd" d="M483.361 300.252L472.678 309.311L475.844 311.793L484.811 302.61L483.361 300.252Z" fill="#22343D"/>
<path fill-rule="evenodd" clip-rule="evenodd" d="M260.03 210.065C256.992 202.971 255.825 195.074 251.292 188.726C244.769 179.591 232.239 175.059 226.946 165.245C224.698 161.076 223.992 156.308 223.969 151.634C223.925 142.387 226.868 132.556 234.459 126.68C243.181 119.927 256.268 120.021 266.484 124.557C276.697 129.094 284.501 137.328 291.136 145.93C297.772 154.529 303.581 163.759 311.308 171.51C317.037 177.256 323.833 182.213 328.149 188.964C339.98 207.474 327.807 230.893 306.92 237.574C288.567 243.442 266.38 224.896 260.03 210.065Z" fill="#22343D"/>
<path fill-rule="evenodd" clip-rule="evenodd" d="M233.884 340.61C235.701 342.015 233.719 341.042 236.362 342.661C235.772 348.873 229.666 352.786 229.666 352.786C229.666 352.786 229.408 362.676 227.447 362.473C225.481 362.272 226.74 352.95 226.74 352.95C226.74 352.95 222.72 362.691 221.019 362.07C219.32 361.453 225.474 350.275 225.474 350.275C225.474 350.275 216.848 361.446 215.663 359.685C214.48 357.925 222.069 347.146 222.069 347.146C222.069 347.146 212.698 356.39 211.639 354.894C210.581 353.401 222.823 340.544 222.823 340.544C217.157 340.486 217.558 336.857 217.558 336.857L231.358 337.627C231.358 337.627 233.049 339.961 233.884 340.61Z" fill="#FFC6B2"/>
<path fill-rule="evenodd" clip-rule="evenodd" d="M365.718 154.098C368.079 154.488 366.247 153.752 369.311 154.59C374.343 150.288 373.675 143.528 373.675 143.528C373.675 143.528 382.115 137.16 380.716 135.915C379.308 134.668 371.986 141.379 371.986 141.379C371.986 141.379 377.943 132.474 376.341 131.672C374.742 130.872 368.864 142.169 368.864 142.169C368.864 142.169 373.189 129.148 370.914 129.42C368.646 129.694 364.011 141.743 364.011 141.743C364.011 141.743 366.19 129.408 364.23 129.603C362.269 129.796 359.096 145.956 359.096 145.956C354.475 142.417 351.24 144.683 351.24 144.683L361.355 154.015C361.355 154.015 364.633 153.921 365.718 154.098Z" fill="#FFC6B2"/>
<path fill-rule="evenodd" clip-rule="evenodd" d="M307.946 208.107C312.215 207.48 325.234 215.419 321.921 231.54C321.644 232.894 319.765 235.873 319.298 237.106C318.707 238.666 323.312 244.379 323.312 244.379L311.423 247.953C310.916 244.574 311.769 239.635 307.927 238.167C306.49 237.618 304.952 237.27 303.596 236.574C299.935 234.693 297.981 230.578 296.477 227.209C295.354 224.692 294.5 221.985 294.531 219.253C294.61 212.375 301.084 209.116 307.946 208.107Z" fill="#FFC6B2"/>
<path fill-rule="evenodd" clip-rule="evenodd" d="M331.754 252.259C331.754 246.457 329.798 244.242 323.326 244.242C316.853 244.242 308.309 246.457 308.309 252.259C308.309 258.064 312.879 265.326 319.355 265.326C325.826 265.326 331.754 258.064 331.754 252.259Z" fill="#FFC6B2"/>
<path fill-rule="evenodd" clip-rule="evenodd" d="M326.643 241.429C326.643 241.429 346.769 221.904 350.794 202.777C354.822 183.651 361.662 152.616 361.662 152.616L369.311 154.59C369.311 154.59 372.936 197.004 369.311 203.499C365.689 209.996 345.158 255.105 345.56 266.652L326.643 241.429Z" fill="#FFC6B2"/>
<path fill-rule="evenodd" clip-rule="evenodd" d="M290.767 250.883C290.767 250.883 283.923 251.965 273.457 274.341C262.99 296.715 230.787 338.368 230.787 338.368L236.021 342.904C236.021 342.904 267.419 320.892 273.457 307.54C279.493 294.189 287.142 277.589 290.767 278.309C294.388 279.032 309.686 259.182 290.767 250.883Z" fill="#FFC6B2"/>
<path fill-rule="evenodd" clip-rule="evenodd" d="M344.649 269.635L354.02 245.297C354.02 245.297 352.574 233.882 334.078 229.79L323.6 243.995L344.649 269.635Z" fill="#FF7B5B"/>
<path fill-rule="evenodd" clip-rule="evenodd" d="M293.891 249.015C293.891 249.015 282.835 249.892 273.873 268.412C273.873 268.412 283.729 281.215 290.939 281.647C290.939 281.647 317.717 260.11 293.891 249.015Z" fill="#FF7B5B"/>
<path fill-rule="evenodd" clip-rule="evenodd" d="M324.269 468.648C324.269 468.648 308.309 499.314 306.443 493.637C304.58 487.957 305.196 474.317 306.195 472.371C307.199 470.423 313.724 461.822 313.724 461.822L324.269 468.648Z" fill="#FFC6B2"/>
<path fill-rule="evenodd" clip-rule="evenodd" d="M325.488 322.857L340.083 317.607C340.083 317.607 383.398 389.617 383.218 409.596C383.039 429.572 323.728 469.574 323.728 469.574L313.724 461.822C313.724 461.822 341.836 422.93 351.625 412.837C356.52 407.79 321.477 383.055 316.169 359.255C310.861 335.455 325.488 322.857 325.488 322.857Z" fill="#654287"/>
<path fill-rule="evenodd" clip-rule="evenodd" d="M237.735 452.584C237.735 452.584 207.881 473.29 209.122 467.479C210.368 461.662 217.884 449.792 219.768 448.471C221.656 447.153 231.849 442.186 231.849 442.186L237.735 452.584Z" fill="#FFC6B2"/>
<path fill-rule="evenodd" clip-rule="evenodd" d="M285.779 348.357L328.96 324.809C328.96 324.809 330.674 406.607 320.308 424.293C309.943 441.979 236.781 453.184 236.781 453.184L231.849 442.186C231.849 442.186 276.986 416.882 290.843 411.93C304.703 406.975 285.779 348.357 285.779 348.357Z" fill="#775298"/>
<path fill-rule="evenodd" clip-rule="evenodd" d="M311.496 308.702C311.496 308.702 279.701 319.294 285.78 348.357C291.857 377.419 301.987 382.867 301.987 382.867L320.221 354.715L338.528 317.847L320.221 315.662L311.496 308.702Z" fill="#775298"/>
<path fill-rule="evenodd" clip-rule="evenodd" d="M326.643 241.429C326.643 241.429 350.051 253.773 350.051 281.667C350.051 281.667 347.077 313.466 342.258 320.414C342.258 320.414 334.423 322.215 324.655 320.414C314.413 318.528 304.501 311.754 304.501 311.754L296.502 272.821L290.279 250.089L293.652 249.042L311.258 247.222C311.258 247.222 308.729 271.968 328.387 259.68C332.527 257.091 323.232 244.188 323.232 244.188L326.643 241.429Z" fill="#FF7B5B"/>
<path fill-rule="evenodd" clip-rule="evenodd" d="M340.971 136.025L390.051 162.965L417.659 113.896L371.646 89.8427L340.971 136.025Z" fill="white"/>
<path fill-rule="evenodd" clip-rule="evenodd" d="M409.25 370.913L444.352 350.467L415.351 302.836L383.264 322.414L409.25 370.913Z" fill="white"/>
<path fill-rule="evenodd" clip-rule="evenodd" d="M236.417 167.948C236.509 167.87 237.593 168.796 239.307 170.684C241.013 172.574 243.341 175.449 245.678 179.328C248.023 183.191 250.344 188.093 252.001 193.783C253.716 199.43 254.867 205.778 257.503 211.893C258.872 214.914 260.531 217.726 262.505 220.212C264.497 222.682 266.707 224.849 268.981 226.74C273.628 230.42 278.497 232.952 282.836 234.414C287.17 235.897 290.883 236.562 293.465 236.801C296.043 237.07 297.5 237.109 297.502 237.269C297.509 237.368 296.056 237.577 293.408 237.529C290.761 237.51 286.909 237.034 282.372 235.666C277.832 234.316 272.702 231.819 267.797 228.058C265.391 226.125 263.053 223.887 260.947 221.315C258.858 218.728 257.093 215.77 255.661 212.603C252.914 206.212 251.829 199.808 250.231 194.235C248.706 188.644 246.585 183.832 244.441 179.961C242.31 176.079 240.195 173.136 238.695 171.129C237.187 169.127 236.304 168.042 236.417 167.948Z" fill="#22343D"/>
<path fill-rule="evenodd" clip-rule="evenodd" d="M296.717 136.429C297.077 136.377 297.428 140.923 300.131 147.648C301.481 150.997 303.489 154.85 306.373 158.713C307.815 160.648 309.474 162.553 311.351 164.452C313.215 166.359 315.246 168.296 317.166 170.469C321.015 174.854 323.663 179.593 326.156 183.777C328.632 188.001 330.604 192.019 331.606 195.614C332.652 199.198 332.713 202.282 332.381 204.328C332.035 206.384 331.492 207.425 331.402 207.397C331.229 207.354 331.51 206.254 331.609 204.263C331.694 202.274 331.425 199.376 330.256 195.989C329.126 192.588 327.093 188.755 324.557 184.621C321.981 180.488 319.31 175.843 315.633 171.664C313.788 169.573 311.786 167.643 309.91 165.688C308.023 163.743 306.308 161.718 304.861 159.691C301.958 155.633 300.02 151.588 298.806 148.092C297.564 144.597 297.035 141.647 296.785 139.615C296.537 137.578 296.604 136.439 296.717 136.429Z" fill="#22343D"/>
<path fill-rule="evenodd" clip-rule="evenodd" d="M311.763 225.63C311.745 225.499 312.544 225.379 313.299 224.545C313.473 224.353 313.648 224.072 313.645 223.909C313.641 223.733 313.511 223.427 313.286 223.252C313.053 223.055 312.793 222.96 312.452 222.993C312.098 223.017 311.668 223.182 311.106 223.261C309.874 223.415 308.914 222.761 308.282 222.231C307.633 221.673 307.138 221.107 306.769 220.6C306.033 219.579 305.804 218.842 305.917 218.787C306.047 218.722 306.49 219.333 307.32 220.189C307.735 220.614 308.258 221.102 308.875 221.572C309.483 222.029 310.228 222.445 310.971 222.334C311.365 222.287 311.824 222.113 312.383 222.078C312.953 222.025 313.586 222.272 313.934 222.64C314.303 223.016 314.51 223.459 314.467 223.984C314.357 224.521 314.054 224.771 313.803 225.006C312.721 225.897 311.729 225.752 311.763 225.63Z" fill="#FF7B5B"/>
<path fill-rule="evenodd" clip-rule="evenodd" d="M317.564 226.398L308.137 229.623C308.137 229.623 316.135 236.207 317.564 226.398Z" fill="white"/>
<path fill-rule="evenodd" clip-rule="evenodd" d="M307.197 225.849C307.574 226.523 307.016 227.496 305.951 228.022C304.886 228.55 303.719 228.432 303.342 227.759C302.965 227.087 303.523 226.114 304.588 225.586C305.653 225.059 306.82 225.176 307.197 225.849Z" fill="#FFB2A0"/>
<path fill-rule="evenodd" clip-rule="evenodd" d="M318.372 220.457C318.68 221.161 318.028 222.08 316.917 222.512C315.805 222.945 314.653 222.726 314.344 222.022C314.036 221.319 314.688 220.4 315.8 219.968C316.911 219.536 318.063 219.754 318.372 220.457Z" fill="#FFB2A0"/>
<path fill-rule="evenodd" clip-rule="evenodd" d="M308.416 238.403C308.416 238.403 311.57 239.007 315.59 238.063C315.59 238.063 313.608 239.874 310.371 240.295C310.371 240.295 309.645 239.033 308.416 238.403Z" fill="#FFA192"/>
<path fill-rule="evenodd" clip-rule="evenodd" d="M311.638 218.466C311.992 218.748 312.035 219.247 311.735 219.58C311.435 219.912 310.907 219.953 310.552 219.671C310.198 219.39 310.155 218.891 310.455 218.557C310.755 218.225 311.285 218.184 311.638 218.466Z" fill="#22343D"/>
<path fill-rule="evenodd" clip-rule="evenodd" d="M305.304 221.895C305.658 222.177 305.701 222.676 305.401 223.009C305.103 223.341 304.572 223.382 304.218 223.1C303.864 222.818 303.821 222.32 304.12 221.986C304.42 221.654 304.951 221.613 305.304 221.895Z" fill="#22343D"/>
<path fill-rule="evenodd" clip-rule="evenodd" d="M311.676 215.167C311.592 215.42 310.805 215.411 309.94 215.657C309.068 215.878 308.406 216.279 308.192 216.106C307.97 215.961 308.483 215.073 309.667 214.756C310.847 214.436 311.782 214.932 311.676 215.167Z" fill="#22343D"/>
<path fill-rule="evenodd" clip-rule="evenodd" d="M300.733 221.385C300.522 221.238 300.853 220.39 301.659 219.542C302.473 218.675 303.516 218.386 303.625 218.628C303.742 218.864 303.106 219.413 302.392 220.175C301.668 220.934 300.962 221.547 300.733 221.385Z" fill="#22343D"/>
<path fill-rule="evenodd" clip-rule="evenodd" d="M297.178 227.971C297.178 227.971 294.155 225.582 292.703 227.743C291.253 229.905 299.234 231.043 299.234 231.043L297.178 227.971Z" fill="#FFC6B2"/>
<path fill-rule="evenodd" clip-rule="evenodd" d="M224.482 445.855C224.482 445.855 220.148 447.628 219.018 448.693C217.887 449.756 207.521 466.601 208.841 468.729C210.161 470.857 220.555 463.634 220.555 463.634C220.555 463.634 211.857 465.184 224.482 445.855Z" fill="#775298"/>
<path fill-rule="evenodd" clip-rule="evenodd" d="M309.061 468.13C309.061 468.13 305.983 471.262 305.508 472.7C305.033 474.135 304.182 493.584 306.403 494.89C308.622 496.197 314.689 485.465 314.689 485.465C314.689 485.465 307.436 490.811 309.061 468.175" fill="#775298"/>
</svg>
