<svg width="16" height="16" viewBox="0 0 16 16" fill="none" xmlns="http://www.w3.org/2000/svg">
<g clip-path="url(#clip0_4_186)">
<path d="M13.1598 4.93803C12.9337 4.93803 12.7183 4.98522 12.5228 5.07001C12.2851 4.46923 11.7019 4.04332 11.0214 4.04332C10.7687 4.04332 10.5293 4.10215 10.316 4.20677C10.0462 3.68652 9.50536 3.33027 8.88314 3.33027C8.70024 3.33027 8.52462 3.36146 8.36053 3.41819V1.62699C8.36058 0.729913 7.63573 0 6.74469 0C5.85375 0 5.12896 0.729913 5.12896 1.62699V8.07241L3.96521 6.74102C3.95708 6.73191 3.94878 6.72297 3.94016 6.71441C3.6346 6.40863 3.22792 6.23909 2.79506 6.23699C2.79226 6.23699 2.78962 6.23699 2.78681 6.23699C2.35498 6.23699 1.95067 6.40373 1.64764 6.70697C1.11333 7.24144 1.08376 8.03476 1.56672 8.88384C2.19191 9.98229 2.8715 11.018 3.47115 11.932C3.90935 12.5999 4.3233 13.2307 4.6259 13.7523C4.88831 14.2049 5.58488 15.6729 5.59199 15.6877C5.68238 15.8785 5.87465 16.0001 6.08562 16.0001H12.9958C13.2332 16.0001 13.4434 15.8469 13.5161 15.6211C13.645 15.2203 14.7756 11.667 14.7756 10.2947V6.56518C14.7755 5.66789 14.0508 4.93803 13.1598 4.93803ZM12.6373 6.56513C12.6373 6.27055 12.8717 6.03093 13.1598 6.03093C13.4481 6.03093 13.6825 6.27055 13.6825 6.56513V10.2946C13.6825 11.2066 12.9817 13.6583 12.5949 14.9071H6.43024C6.20365 14.4356 5.77898 13.5622 5.5713 13.204C5.25362 12.6562 4.83164 12.0132 4.38493 11.3323C3.79417 10.4321 3.1247 9.41162 2.51659 8.34334C2.35789 8.06423 2.21243 7.68793 2.4207 7.47966C2.51783 7.38231 2.64863 7.33146 2.78978 7.32995C2.92753 7.33065 3.05709 7.38258 3.15638 7.47654L5.26407 9.88758C5.41383 10.0591 5.65453 10.1196 5.86754 10.0396C6.08077 9.9595 6.22197 9.7556 6.22197 9.52793V1.62699C6.22197 1.33247 6.45647 1.09296 6.74474 1.09296C7.03306 1.09296 7.26762 1.33247 7.26762 1.62699V6.72927C7.26762 7.03107 7.51236 7.27575 7.8141 7.27575C8.11584 7.27575 8.36058 7.03107 8.36058 6.72927V4.9571C8.36058 4.66274 8.59503 4.42328 8.88319 4.42328C9.17146 4.42328 9.40591 4.66274 9.40591 4.9571V7.44206C9.40591 7.74401 9.6506 7.98859 9.95234 7.98859C10.2541 7.98859 10.4989 7.74406 10.4989 7.44206V5.67031C10.4989 5.37579 10.7333 5.13622 11.0215 5.13622C11.3098 5.13622 11.5444 5.37579 11.5444 5.67031V8.15543C11.5444 8.45717 11.7891 8.70196 12.0908 8.70196C12.3927 8.70196 12.6374 8.45717 12.6374 8.15543V6.56513H12.6373Z" fill="black"/>
</g>
<defs>
<clipPath id="clip0_4_186">
<rect width="16" height="16" fill="white"/>
</clipPath>
</defs>
</svg>
